# xmcd
#
# Track frame offsets:
#	150
#	15605
#	30434
#	47151
#	59819
#	75039
#	95949
#	114138
#	129358
#	149083
#	167154
#	184281
#
# Disc length: 2714 seconds
#
# Revision: 0
# Processed by: cddbd v1.5PL3 Copyright (c) Steve Scherf et al.
# Submitted via: dBpowerAMP V4.0
#
DISCID=a00a980c
DTITLE=In Flames - Soundtrack To Your Escape
DYEAR=2004
DGENRE=Nu-Metal
TTITLE0=F(r)iend
TTITLE1=The Quiet Place
TTITLE2=Dead Alone
TTITLE3=Touch of Red
TTITLE4=Like You Better Dead
TTITLE5=My Sweet Shadow
TTITLE6=Evil In A Closet
TTITLE7=In Search For I
TTITLE8=Borders And Shading
TTITLE9=Superhero of The Computer Rage
TTITLE10=Dial 595-Escape
TTITLE11=Bottled
EXTD=
EXTT0=
EXTT1=
EXTT2=
EXTT3=
EXTT4=
EXTT5=
EXTT6=
EXTT7=
EXTT8=
EXTT9=
EXTT10=
EXTT11=
PLAYORDER=
